<?xml version="1.0" encoding="utf-8"?>
<!-- Generator: Adobe Illustrator 26.0.1, SVG Export Plug-In . SVG Version: 6.00 Build 0)  -->
<svg version="1.1" id="Layer_1" xmlns="http://www.w3.org/2000/svg" xmlns:xlink="http://www.w3.org/1999/xlink" x="0px" y="0px"
	 width="50px" height="50px" viewBox="0 0 50 50" style="enable-background:new 0 0 50 50;" xml:space="preserve">
<style type="text/css">
	.st0{fill:#000000;}
</style>
<g>
	<path class="st0" d="M49.6,14.9c0,6.6,0,13.3,0,19.9c0,0.2-0.1,0.3-0.1,0.5c-0.1,1-0.2,2-0.3,2.9c-0.5,3.1-1.9,5.8-4.2,7.9
		c-2.6,2.3-5.7,3.2-9.1,3.4c-1.2,0.1-2.3,0.1-3.5,0.2c-5,0-9.9,0-14.9,0c-0.3,0-0.6-0.1-0.9-0.1c-2-0.1-4-0.1-5.9-0.6
		c-4.1-1-7.1-3.3-8.9-7.1c-1.1-2.4-1.5-4.9-1.5-7.5c-0.1-5.3-0.1-10.7-0.1-16c0-2.4,0-4.9,0.6-7.3C1.8,7,4.1,3.8,8,1.9
		c2.3-1.1,4.9-1.4,7.4-1.5c6.8-0.2,13.6-0.2,20.5,0.1c2,0.1,3.9,0.5,5.8,1.3c4.5,2.1,6.9,5.7,7.7,10.5C49.4,13.2,49.5,14,49.6,14.9z
		 M25,45.4C25,45.4,25,45.3,25,45.4c1.3-0.1,2.6,0,3.9-0.1c2.8-0.1,5.6-0.1,8.4-0.4c3.8-0.5,6.4-2.7,7.3-6.5
		c0.4-1.5,0.5-3.1,0.5-4.7c0.1-5,0.1-10,0.1-15c0-2-0.1-4-0.4-6c-0.5-4-3-6.7-6.9-7.5c-1.7-0.3-3.4-0.4-5.2-0.5
		c-4.6-0.1-9.2-0.1-13.8,0c-2.2,0-4.4,0.1-6.6,0.4c-3.7,0.6-6.2,2.8-7,6.5c-0.4,1.7-0.5,3.4-0.5,5.1c-0.1,4-0.1,8-0.1,12
		c0,2.7,0.1,5.5,0.4,8.2c0.3,2.7,1.5,5,3.9,6.5c1.6,1,3.4,1.4,5.2,1.5C17.8,45.2,21.4,45.3,25,45.4z"/>
	<path class="st0" d="M24.9,37.7c-7,0-12.7-5.8-12.7-12.8c0.1-7,5.8-12.7,12.8-12.7c7.1,0.1,12.7,5.8,12.6,12.8
		C37.6,32.1,31.9,37.8,24.9,37.7z M16.7,25c0,4.6,3.7,8.2,8.2,8.2c4.6,0,8.2-3.7,8.2-8.2c0-4.6-3.7-8.3-8.2-8.3
		C20.4,16.8,16.7,20.5,16.7,25z"/>
	<path class="st0" d="M41.1,11.8c0,1.7-1.3,3-3,2.9c-1.6,0-2.9-1.4-2.9-3c0-1.6,1.3-2.9,3-2.9C39.8,8.9,41.1,10.2,41.1,11.8z"/>
</g>
</svg>
